Coordinates
nRows=233
nColumns=2
inDegrees=yes
endheader
time	ankle_angle_r	
2.99395	  9.357230	
3.02722	  9.364937	
3.06048	  9.369234	
3.09375	  9.369569	
3.12702	  9.369179	
3.16028	  9.371881	
3.19355	  9.376774	
3.22681	  9.379415	
3.26008	  9.378332	
3.29335	  9.376455	
3.32661	  9.378273	
3.35988	  9.386063	
3.39315	  9.396849	
3.42641	  9.406404	
3.45968	  9.413169	
3.49294	  9.417284	
3.52621	  9.421215	
3.55948	  9.426126	
3.59274	  9.429100	
3.62601	  9.428753	
3.65927	  9.426719	
3.69254	  9.424945	
3.72581	  9.424900	
3.75907	  9.427392	
3.79234	  9.433758	
3.8256	  9.445150	
3.85887	  9.459550	
3.89214	  9.472960	
3.9254	  9.482457	
3.95867	  9.485058	
3.99194	  9.479400	
4.0252	  9.470427	
4.05847	  9.464300	
4.09173	  9.459968	
4.125	  9.452588	
4.15827	  9.442632	
4.19153	  9.436455	
4.2248	  9.440287	
4.25806	  9.455236	
4.29133	  9.472445	
4.3246	  9.477471	
4.35786	  9.466961	
4.39113	  9.453798	
4.4244	  9.450990	
4.45766	  9.455035	
4.49093	  9.452596	
4.52419	  9.443029	
4.55746	  9.437188	
4.59073	  9.437824	
4.62399	  9.443219	
4.65726	  9.455928	
4.69052	  9.471859	
4.72379	  9.478623	
4.75706	  9.471550	
4.79032	  9.460335	
4.82359	  9.456004	
4.85685	  9.456630	
4.89012	  9.451488	
4.92339	  9.435833	
4.95665	  9.417850	
4.98992	  9.413095	
5.02319	  9.427132	
5.05645	  9.444516	
5.08972	  9.449107	
5.12298	  9.445789	
5.15625	  9.445268	
5.18952	  9.445419	
5.22278	  9.439104	
5.25605	  9.425310	
5.28931	  9.410522	
5.32258	  9.402320	
5.35585	  9.401647	
5.38911	  9.407713	
5.42238	  9.419792	
5.45565	  9.428080	
5.48891	  9.423309	
5.52218	  9.412733	
5.55544	  9.406322	
5.58871	  9.399725	
5.62198	  9.386671	
5.65524	  9.371237	
5.68851	  9.361332	
5.72177	  9.362055	
5.75504	  9.371428	
5.78831	  9.381913	
5.82157	  9.387519	
5.85484	  9.384834	
5.8881	  9.375914	
5.92137	  9.367929	
5.95464	  9.362747	
5.9879	  9.358441	
6.02117	  9.356739	
6.05444	  9.357462	
6.0877	  9.357192	
6.12097	  9.356233	
6.15423	  9.356298	
6.1875	  9.356378	
6.22077	  9.356004	
6.25403	  9.354426	
6.2873	  9.350399	
6.32056	  9.348190	
6.35383	  9.351215	
6.3871	  9.353474	
6.42036	  9.348727	
6.45363	  9.338682	
6.4869	  9.332452	
6.52016	  9.339557	
6.55343	  9.355788	
6.58669	  9.365741	
6.61996	  9.361746	
6.65323	  9.350921	
6.68649	  9.346946	
6.71976	  9.355638	
6.75302	  9.368504	
6.78629	  9.374733	
6.81956	  9.373716	
6.85282	  9.371166	
6.88609	  9.370477	
6.91935	  9.371093	
6.95262	  9.372745	
6.98589	  9.378856	
7.01915	  9.389347	
7.05242	  9.396897	
7.08569	  9.398843	
7.11895	  9.399442	
7.15222	  9.400216	
7.18548	  9.400335	
7.21875	  9.399973	
7.25202	  9.399906	
7.28528	  9.402097	
7.31855	  9.405570	
7.35181	  9.404813	
7.38508	  9.398834	
7.41835	  9.393077	
7.45161	  9.390866	
7.48488	  9.390688	
7.51815	  9.389598	
7.55141	  9.387291	
7.58468	  9.387105	
7.61794	  9.389678	
7.65121	  9.391337	
7.68448	  9.391744	
7.71774	  9.391821	
7.75101	  9.389604	
7.78427	  9.387250	
7.81754	  9.388514	
7.85081	  9.390804	
7.88407	  9.391097	
7.91734	  9.389108	
7.9506	  9.384141	
7.98387	  9.380578	
8.01714	  9.386163	
8.0504	  9.398760	
8.08367	  9.408165	
8.11694	  9.407330	
8.1502	  9.396040	
8.18347	  9.383815	
8.21673	  9.381876	
8.25	  9.387743	
8.28327	  9.392091	
8.31653	  9.392850	
8.3498	  9.393091	
8.38306	  9.395024	
8.41633	  9.396622	
8.4496	  9.393915	
8.48286	  9.388302	
8.51613	  9.384828	
8.5494	  9.385913	
8.58266	  9.390848	
8.61593	  9.396157	
8.64919	  9.398408	
8.68246	  9.398756	
8.71573	  9.400774	
8.74899	  9.406187	
8.78226	  9.412993	
8.81552	  9.415035	
8.84879	  9.408304	
8.88206	  9.396552	
8.91532	  9.387322	
8.94859	  9.388253	
8.98185	  9.401992	
9.01512	  9.420558	
9.04839	  9.433589	
9.08165	  9.436030	
9.11492	  9.427378	
9.14819	  9.414990	
9.18145	  9.409913	
9.21472	  9.416205	
9.24798	  9.429908	
9.28125	  9.441788	
9.31452	  9.441931	
9.34778	  9.430634	
9.38105	  9.419219	
9.41431	  9.413844	
9.44758	  9.410045	
9.48085	  9.404280	
9.51411	  9.397336	
9.54738	  9.389762	
9.58065	  9.380194	
9.61391	  9.366172	
9.64718	  9.350608	
9.68044	  9.342053	
9.71371	  9.342247	
9.74698	  9.345350	
9.78024	  9.348890	
9.81351	  9.352728	
9.84677	  9.354282	
9.88004	  9.353352	
9.91331	  9.352350	
9.94657	  9.351406	
9.97984	  9.350794	
10.0131	  9.351510	
10.0464	  9.353722	
10.0796	  9.357908	
10.1129	  9.361545	
10.1462	  9.362041	
10.1794	  9.362510	
10.2127	  9.364217	
10.246	  9.363202	
10.2792	  9.358077	
10.3125	  9.353028	
10.3458	  9.354160	
10.379	  9.362297	
10.4123	  9.370988	
10.4456	  9.375731	
10.4788	  9.378242	
10.5121	  9.380444	
10.5454	  9.382374	
10.5786	  9.384180	
10.6119	  9.387473	
10.6452	  9.398069	
10.6784	  9.422984	
10.7117	  9.460427	
